<svg width="507" height="457" viewBox="0 0 507 457" fill="none" xmlns="http://www.w3.org/2000/svg">
<path fill-rule="evenodd" clip-rule="evenodd" d="M26.7558 95.185C20.3271 107.968 14.2134 110.997 3.76085 115.367L18.2213 149.954C23.9917 163.756 35.0194 163.376 56.8426 167.149C69.4868 148.966 77.5032 141.384 71.7328 127.582L57.2724 92.9943C46.8198 97.3644 40.3701 99.5888 26.7558 95.185ZM28.3754 99.059C40.0175 102.329 46.9248 100.656 55.5444 97.2147L68.76 128.825C73.6378 140.492 67.1142 146.925 55.362 163.608C35.1833 160.243 26.0457 160.315 21.1942 148.711L7.97855 117.101C16.4827 113.384 22.5251 109.642 28.3754 99.059ZM52.9415 116.05L43.4308 143.356L27.5865 136.133L28.8142 133.214L41.7481 139.022L49.9185 114.901L52.9415 116.05Z" fill="#1A4345"/>
<circle cx="272.5" cy="228.5" r="228.5" fill="#D0D9DA"/>
<path d="M253.5 409.999C393.504 409.999 507 405.543 507 400.047C507 394.55 393.504 390.094 253.5 390.094C113.496 390.094 0 394.55 0 400.047C0 405.543 113.496 409.999 253.5 409.999Z" fill="#A1A1A1"/>
<path d="M289.445 327.812H281.734H275.169H259.176H251.464H244.9C233.297 327.812 223.891 343.657 223.891 363.203H230.455C230.455 382.749 239.861 398.594 251.464 398.594H281.733C293.336 398.594 302.742 382.749 302.742 363.203H310.454C310.454 343.657 301.048 327.812 289.445 327.812Z" fill="#041801"/>
<path d="M225.219 327.812H217.508H210.943H194.949H187.238H180.673C169.071 327.812 159.664 343.657 159.664 363.203H166.229C166.229 382.749 175.635 398.594 187.238 398.594H217.508C229.11 398.594 238.516 382.749 238.516 363.203H246.227C246.227 343.657 236.821 327.812 225.219 327.812Z" fill="#041801"/>
<path d="M427.153 327.816H396.883C408.485 327.816 417.892 343.661 417.892 363.207H448.161C448.161 343.661 438.755 327.816 427.153 327.816Z" fill="#041801"/>
<path d="M389.173 327.816H419.443C431.045 327.816 440.452 343.661 440.452 363.207C440.452 382.753 431.046 398.598 419.443 398.598H389.173C377.571 398.598 368.164 382.753 368.164 363.207C368.165 343.661 377.571 327.816 389.173 327.816Z" fill="#0C2109"/>
<path d="M404.306 327.816C392.703 327.816 383.297 343.661 383.297 363.207C383.297 382.753 392.703 398.598 404.306 398.598" stroke="#354232" stroke-miterlimit="10"/>
<path d="M420.012 396.054C430.455 396.054 438.922 381.349 438.922 363.209C438.922 345.069 430.455 330.363 420.012 330.363C409.568 330.363 401.102 345.069 401.102 363.209C401.102 381.349 409.568 396.054 420.012 396.054Z" fill="#354232"/>
<path d="M422.009 384.187C427.581 384.187 432.097 374.792 432.097 363.203C432.097 351.614 427.581 342.219 422.009 342.219C416.438 342.219 411.922 351.614 411.922 363.203C411.922 374.792 416.438 384.187 422.009 384.187Z" fill="#DEC5AB"/>
<path d="M422.793 379.818C426.769 379.818 429.992 372.379 429.992 363.204C429.992 354.028 426.769 346.59 422.793 346.59C418.817 346.59 415.594 354.028 415.594 363.204C415.594 372.379 418.817 379.818 422.793 379.818Z" fill="#F8E4CF"/>
<path d="M423.185 371.04C424.854 371.04 426.206 367.534 426.206 363.21C426.206 358.885 424.854 355.379 423.185 355.379C421.517 355.379 420.164 358.885 420.164 363.21C420.164 367.534 421.517 371.04 423.185 371.04Z" fill="#AA8F77"/>
<path d="M382.603 327.816H412.872C401.27 327.816 391.864 343.661 391.864 363.207H361.594C361.595 343.661 371 327.816 382.603 327.816Z" fill="#2A3327"/>
<path d="M362.926 327.816H332.656C344.259 327.816 353.665 343.661 353.665 363.207H383.935C383.934 343.661 374.528 327.816 362.926 327.816Z" fill="#041801"/>
<path d="M324.931 327.816H355.2C366.802 327.816 376.209 343.661 376.209 363.207C376.209 382.753 366.803 398.598 355.2 398.598H324.931C313.328 398.598 303.922 382.753 303.922 363.207C303.923 343.661 313.328 327.816 324.931 327.816Z" fill="#0C2109"/>
<path d="M340.064 327.816C328.461 327.816 319.055 343.661 319.055 363.207C319.055 382.753 328.46 398.598 340.064 398.598" stroke="#354232" stroke-miterlimit="10"/>
<path d="M355.769 396.054C366.213 396.054 374.679 381.349 374.679 363.209C374.679 345.069 366.213 330.363 355.769 330.363C345.326 330.363 336.859 345.069 336.859 363.209C336.859 381.349 345.326 396.054 355.769 396.054Z" fill="#354232"/>
<path d="M357.767 384.187C363.339 384.187 367.855 374.792 367.855 363.203C367.855 351.614 363.339 342.219 357.767 342.219C352.196 342.219 347.68 351.614 347.68 363.203C347.68 374.792 352.196 384.187 357.767 384.187Z" fill="#DEC5AB"/>
<path d="M358.55 379.818C362.526 379.818 365.749 372.379 365.749 363.204C365.749 354.028 362.526 346.59 358.55 346.59C354.575 346.59 351.352 354.028 351.352 363.204C351.352 372.379 354.575 379.818 358.55 379.818Z" fill="#F8E4CF"/>
<path d="M358.943 371.04C360.612 371.04 361.964 367.534 361.964 363.21C361.964 358.885 360.612 355.379 358.943 355.379C357.275 355.379 355.922 358.885 355.922 363.21C355.922 367.534 357.275 371.04 358.943 371.04Z" fill="#AA8F77"/>
<path d="M318.375 327.816H348.645C337.043 327.816 327.636 343.661 327.636 363.207H297.367C297.367 343.661 306.773 327.816 318.375 327.816Z" fill="#2A3327"/>
<path d="M99 330.765C99 331.616 99.6488 332.306 100.449 332.306H481.962C482.763 332.306 483.412 331.616 483.412 330.765V324.857C483.412 324.006 482.763 323.316 481.962 323.316H100.45C99.6495 323.316 99.0008 324.006 99.0008 324.857V330.765H99Z" fill="#0C2109"/>
<path d="M490.154 324.473C490.154 325.324 489.464 326.014 488.613 326.014H93.7754C92.924 326.014 92.2344 325.324 92.2344 324.473V158.041C92.2344 157.19 92.924 156.5 93.7754 156.5H488.613C489.464 156.5 490.154 157.19 490.154 158.041V324.473Z" fill="#E6B355"/>
<path d="M261.501 324.226C261.501 325.077 260.812 325.767 259.96 325.767H93.7754C92.924 325.767 92.2344 325.077 92.2344 324.226V158.041C92.2344 157.19 92.924 156.5 93.7754 156.5H259.96C260.812 156.5 261.501 157.19 261.501 158.041V324.226Z" fill="#E6B355"/>
<path d="M261.501 163.754H92.2344V318.513H261.501V163.754Z" fill="#EEB768"/>
<path d="M490.16 163.754H261.508V318.513H490.16V163.754Z" fill="#E09F43"/>
<path d="M92.2344 312.141H490.154" stroke="#AA8F77" stroke-miterlimit="10"/>
<path d="M92.2344 307.008H490.154" stroke="#AA8F77" stroke-miterlimit="10"/>
<path d="M92.2344 301.871H490.154" stroke="#AA8F77" stroke-miterlimit="10"/>
<path d="M92.2344 296.734H490.154" stroke="#AA8F77" stroke-miterlimit="10"/>
<path d="M92.2344 291.598H490.154" stroke="#AA8F77" stroke-miterlimit="10"/>
<path d="M92.2344 286.461H490.154" stroke="#AA8F77" stroke-miterlimit="10"/>
<path d="M92.2344 195.02H490.154" stroke="#AA8F77" stroke-miterlimit="10"/>
<path d="M92.2344 189.887H490.154" stroke="#AA8F77" stroke-miterlimit="10"/>
<path d="M92.2344 184.75H490.154" stroke="#AA8F77" stroke-miterlimit="10"/>
<path d="M92.2344 179.613H490.154" stroke="#AA8F77" stroke-miterlimit="10"/>
<path d="M92.2344 174.477H490.154" stroke="#AA8F77" stroke-miterlimit="10"/>
<path d="M92.2344 169.34H490.154" stroke="#AA8F77" stroke-miterlimit="10"/>
<path d="M283.072 335.695H275.539V366.067H283.072V335.695Z" fill="#0C2109"/>
<path d="M317.673 335.695H310.141V366.067H317.673V335.695Z" fill="#0C2109"/>
<path d="M351.365 353.828C351.365 354.679 350.676 355.369 349.824 355.369H263.049C262.197 355.369 261.508 354.679 261.508 353.828V351.182C261.508 350.33 262.197 349.641 263.049 349.641H349.824C350.676 349.641 351.365 350.33 351.365 351.182V353.828Z" fill="#475643"/>
<path d="M351.365 367.39C351.365 368.242 350.676 368.931 349.824 368.931H263.049C262.197 368.931 261.508 368.242 261.508 367.39V364.744C261.508 363.893 262.197 363.203 263.049 363.203H349.824C350.676 363.203 351.365 363.893 351.365 364.744V367.39Z" fill="#475643"/>
<path d="M493.172 345.022C493.172 345.873 493.861 346.563 494.713 346.563H499.336C500.187 346.563 500.877 345.873 500.877 345.022V327.557C500.877 326.705 500.187 326.016 499.336 326.016H494.713C493.861 326.016 493.172 326.705 493.172 327.557V345.022Z" fill="#0C2109"/>
<path d="M496.769 339.37C496.769 340.222 496.079 340.911 495.228 340.911H90.9629C90.1115 340.911 89.4219 340.222 89.4219 339.37V329.354C89.4219 328.502 90.1115 327.812 90.9629 327.812H495.228C496.079 327.812 496.769 328.502 496.769 329.354V339.37Z" fill="#354232"/>
<path d="M451.583 335.695C451.583 336.235 451.146 336.673 450.605 336.673H447.939C447.399 336.673 446.961 336.235 446.961 335.695V333.029C446.961 332.488 447.399 332.051 447.939 332.051H450.605C451.146 332.051 451.583 332.488 451.583 333.029V335.695Z" fill="#BD3E00"/>
<path d="M473.982 335.695C473.982 336.235 473.544 336.673 473.004 336.673H470.337C469.797 336.673 469.359 336.235 469.359 335.695V333.029C469.359 332.488 469.797 332.051 470.337 332.051H473.004C473.544 332.051 473.982 332.488 473.982 333.029V335.695Z" fill="#BD3E00"/>
<path d="M280.169 335.695C280.169 336.235 279.732 336.673 279.191 336.673H276.525C275.985 336.673 275.547 336.235 275.547 335.695V333.029C275.547 332.488 275.985 332.051 276.525 332.051H279.191C279.732 332.051 280.169 332.488 280.169 333.029V335.695Z" fill="#BD3E00"/>
<path d="M302.568 335.695C302.568 336.235 302.13 336.673 301.59 336.673H298.923C298.383 336.673 297.945 336.235 297.945 335.695V333.029C297.945 332.488 298.383 332.051 298.923 332.051H301.59C302.13 332.051 302.568 332.488 302.568 333.029V335.695Z" fill="#BD3E00"/>
<path d="M234.908 312.25H197.984C212.138 312.25 223.611 331.578 223.611 355.42H260.535C260.535 331.578 249.061 312.25 234.908 312.25Z" fill="#041801"/>
<path d="M188.573 312.25H225.497C239.65 312.25 251.123 331.578 251.123 355.42C251.123 379.263 239.649 398.591 225.497 398.591H188.573C174.419 398.591 162.945 379.263 162.945 355.42C162.946 331.578 174.419 312.25 188.573 312.25Z" fill="#041801"/>
<path d="M207.041 312.25C192.887 312.25 181.414 331.578 181.414 355.42C181.414 379.263 192.888 398.591 207.041 398.591" stroke="#354232" stroke-miterlimit="10"/>
<path d="M226.192 395.488C238.931 395.488 249.259 377.549 249.259 355.422C249.259 333.294 238.931 315.355 226.192 315.355C213.452 315.355 203.125 333.294 203.125 355.422C203.125 377.549 213.452 395.488 226.192 395.488Z" fill="#354232"/>
<path d="M228.633 381.017C235.429 381.017 240.938 369.556 240.938 355.418C240.938 341.281 235.429 329.82 228.633 329.82C221.837 329.82 216.328 341.281 216.328 355.418C216.328 369.556 221.837 381.017 228.633 381.017Z" fill="#DEC5AB"/>
<path d="M229.586 375.689C234.436 375.689 238.368 366.615 238.368 355.422C238.368 344.23 234.436 335.156 229.586 335.156C224.736 335.156 220.805 344.23 220.805 355.422C220.805 366.615 224.736 375.689 229.586 375.689Z" fill="#F8E4CF"/>
<path d="M226.375 355.423C226.375 360.699 228.025 364.975 230.061 364.975C232.097 364.975 233.747 360.699 233.747 355.423C233.747 350.147 232.097 345.871 230.061 345.871C228.025 345.871 226.375 350.147 226.375 355.423Z" fill="#AA8F77"/>
<path d="M107.73 312.25H98.324H70.8065H61.4001C47.2464 312.25 35.7734 331.578 35.7734 355.42C35.7734 379.263 47.2472 398.591 61.4001 398.591H98.324C112.478 398.591 123.951 379.263 123.951 355.42H133.357C133.358 331.578 121.884 312.25 107.73 312.25Z" fill="#041801"/>
<path d="M185.229 330.43H19.6484V342.142H185.229V330.43Z" fill="#041801"/>
<path d="M16.8203 329.421C16.8203 331.919 18.3012 333.863 22.6762 333.863C25.3014 333.863 181.391 333.863 183.41 333.863C185.429 333.863 187.246 328.814 190.679 324.372C194.112 319.93 201.583 306.199 223.593 306.199C245.603 306.199 244.795 307.612 245.603 304.785C246.41 301.958 251.257 281.765 251.459 280.756C251.661 279.746 251.459 211.294 251.459 203.015C251.459 194.735 248.834 194.129 243.18 194.129C233.084 194.129 74.5705 194.129 62.8587 194.129C55.1851 194.129 49.7337 199.177 47.3104 204.225C44.8872 209.273 25.1134 258.429 25.1134 258.429C25.1134 258.429 20.4718 260.903 18.6364 263.995C17.3589 266.151 16.8203 325.921 16.8203 329.421Z" fill="#124246"/>
<path opacity="0.4" d="M190.679 324.372C194.112 319.93 201.584 306.199 223.594 306.199C245.603 306.199 244.796 307.612 245.603 304.785C246.411 301.958 251.257 281.765 251.459 280.756C251.661 279.746 251.459 211.294 251.459 203.015C251.459 194.735 248.834 194.129 243.18 194.129C239.178 194.129 215.262 194.129 182.243 194.129C174.57 194.129 169.118 199.177 166.695 204.225C164.272 209.273 144.498 258.429 144.498 258.429C144.498 258.429 139.857 260.903 138.021 263.995C136.742 266.148 136.203 325.919 136.203 329.419C136.203 331.917 137.684 333.861 142.059 333.861C165.263 333.861 182.742 333.861 183.41 333.861C185.429 333.864 187.247 328.815 190.679 324.372Z" fill="#1A4345"/>
<path d="M165.539 206.883H251.479" stroke="#021801" stroke-miterlimit="10"/>
<path d="M167.531 202.73H251.475" stroke="#021801" stroke-miterlimit="10"/>
<path d="M226.57 206.883V306.227" stroke="#021801" stroke-miterlimit="10"/>
<path d="M153.336 333.871V262.186L162.87 213.254" stroke="#021801" stroke-miterlimit="10"/>
<path d="M221.773 287.623C221.773 288.515 221.049 289.239 220.158 289.239H211.1C210.208 289.239 209.484 288.515 209.484 287.623C209.484 286.731 210.208 286.008 211.1 286.008H220.158C221.049 286.008 221.773 286.731 221.773 287.623Z" fill="#021801"/>
<path d="M248.245 254.935C248.245 255.827 247.522 256.551 246.63 256.551H233.303C232.411 256.551 231.688 255.827 231.688 254.935V217.377C231.688 216.484 232.411 215.762 233.303 215.762H246.63C247.522 215.762 248.245 216.485 248.245 217.377V254.935Z" stroke="#021801" stroke-width="2" stroke-miterlimit="10"/>
<path d="M246.605 306.223C244.342 306.223 209.248 306.223 197.94 306.223C187.29 306.223 181.658 314.625 181.038 337.699H7.72515C6.83289 337.699 6.10938 338.423 6.10938 339.315V355.671C6.10938 356.563 6.83289 357.286 7.72515 357.286H188.652C189.544 357.286 190.268 356.562 190.268 355.671C190.268 355.671 192.489 339.315 202.383 328.41C212.277 317.506 224.595 315.487 234.692 315.689C244.788 315.891 247.256 315.689 248.243 315.689C249.23 315.689 249.634 314.074 249.634 312.66C249.634 311.247 249.634 309.228 249.634 308.218C249.633 307.208 248.868 306.223 246.605 306.223Z" fill="#0C2109"/>
<path d="M134.176 339.315C134.176 338.423 133.453 337.699 132.561 337.699H7.72515C6.83289 337.699 6.10938 338.423 6.10938 339.315V355.671C6.10938 356.563 6.83289 357.286 7.72515 357.286H132.561C133.453 357.286 134.176 356.562 134.176 355.671V339.315Z" fill="#354232"/>
<path d="M72.5536 352.475C72.5536 353.455 71.7599 354.248 70.7806 354.248H44.6323C43.653 354.248 42.8594 353.455 42.8594 352.475V342.503C42.8594 341.524 43.653 340.73 44.6323 340.73H70.7806C71.7599 340.73 72.5536 341.524 72.5536 342.503V352.475Z" fill="#F8E4CF"/>
<path d="M95.2728 351.227C95.2728 352.12 94.5493 352.842 93.657 352.842H86.1861C85.2938 352.842 84.5703 352.119 84.5703 351.227V343.756C84.5703 342.863 85.2938 342.141 86.1861 342.141H93.657C94.5493 342.141 95.2728 342.864 95.2728 343.756V351.227Z" fill="#BD3E00"/>
<path d="M107.796 351.227C107.796 352.12 107.073 352.842 106.18 352.842H98.7088C97.8165 352.842 97.0938 352.119 97.0938 351.227V343.756C97.0938 342.863 97.8173 342.141 98.7088 342.141H106.18C107.073 342.141 107.796 342.864 107.796 343.756V351.227Z" fill="#BD3E00"/>
<path d="M27.6019 351.227C27.6019 352.12 27.1565 352.842 26.6064 352.842H22.0033C21.4539 352.842 21.0078 352.119 21.0078 351.227V343.756C21.0078 342.863 21.4532 342.141 22.0033 342.141H26.6064C27.1558 342.141 27.6019 342.864 27.6019 343.756V351.227Z" fill="#BD3E00"/>
<path d="M35.3128 351.227C35.3128 352.12 34.8675 352.842 34.3173 352.842H29.7143C29.1649 352.842 28.7188 352.119 28.7188 351.227V343.756C28.7188 342.863 29.1641 342.141 29.7143 342.141H34.3173C34.8667 342.141 35.3128 342.864 35.3128 343.756V351.227Z" fill="#BD3E00"/>
<path d="M129.29 352.343C131.971 349.662 131.971 345.315 129.29 342.634C126.609 339.953 122.262 339.953 119.581 342.634C116.9 345.315 116.9 349.662 119.581 352.343C122.262 355.024 126.609 355.024 129.29 352.343Z" fill="#E99735"/>
<path d="M17.4296 347.49C17.4296 351.282 15.5441 354.356 13.2187 354.356C10.8933 354.356 9.00781 351.282 9.00781 347.49C9.00781 343.699 10.8933 340.625 13.2187 340.625C15.5441 340.625 17.4296 343.699 17.4296 347.49Z" fill="#E99735"/>
<path opacity="0.4" d="M134.177 308.625C134.177 309.517 133.454 310.24 132.562 310.24H21.2556C20.3634 310.24 19.6406 309.516 19.6406 308.625V302.97C19.6406 302.078 20.3641 301.355 21.2556 301.355H132.562C133.454 301.355 134.177 302.079 134.177 302.97V308.625Z" fill="#1A4345"/>
<path d="M106.986 328.815C106.986 329.707 106.262 330.43 105.37 330.43H36.5134C35.6212 330.43 34.8984 329.706 34.8984 328.815V314.881C34.8984 313.989 35.622 313.266 36.5134 313.266H105.371C106.263 313.266 106.986 313.989 106.986 314.881V328.815H106.986Z" fill="#021801"/>
<path d="M34.8984 315.387H106.986" stroke="#1A4345" stroke-miterlimit="10"/>
<path d="M34.8984 318.617H106.986" stroke="#1A4345" stroke-miterlimit="10"/>
<path d="M34.8984 321.852H106.986" stroke="#1A4345" stroke-miterlimit="10"/>
<path d="M34.8984 325.078H106.986" stroke="#1A4345" stroke-miterlimit="10"/>
<path d="M34.8984 328.309H106.986" stroke="#1A4345" stroke-miterlimit="10"/>
<path d="M121.875 331.538C127.004 331.538 131.163 327.379 131.163 322.25C131.163 317.12 127.004 312.961 121.875 312.961C116.745 312.961 112.586 317.12 112.586 322.25C112.586 327.379 116.745 331.538 121.875 331.538Z" fill="#021801"/>
<path d="M121.869 329.925C126.107 329.925 129.542 326.49 129.542 322.252C129.542 318.014 126.107 314.578 121.869 314.578C117.631 314.578 114.195 318.014 114.195 322.252C114.195 326.49 117.631 329.925 121.869 329.925Z" fill="#E99735"/>
<path d="M121.869 324.675C123.207 324.675 124.292 323.59 124.292 322.251C124.292 320.913 123.207 319.828 121.869 319.828C120.53 319.828 119.445 320.913 119.445 322.251C119.445 323.59 120.53 324.675 121.869 324.675Z" fill="#F8E4CF"/>
<path d="M25.7009 331.538C28.8236 331.538 31.355 327.379 31.355 322.25C31.355 317.12 28.8236 312.961 25.7009 312.961C22.5783 312.961 20.0469 317.12 20.0469 322.25C20.0469 327.379 22.5783 331.538 25.7009 331.538Z" fill="#021801"/>
<path d="M25.6943 329.924C28.274 329.924 30.3652 326.489 30.3652 322.251C30.3652 318.013 28.274 314.578 25.6943 314.578C23.1147 314.578 21.0234 318.013 21.0234 322.251C21.0234 326.489 23.1147 329.924 25.6943 329.924Z" fill="#E99735"/>
<path d="M25.7013 324.675C26.5158 324.675 27.1761 323.59 27.1761 322.251C27.1761 320.913 26.5158 319.828 25.7013 319.828C24.8868 319.828 24.2266 320.913 24.2266 322.251C24.2266 323.59 24.8868 324.675 25.7013 324.675Z" fill="#F8E4CF"/>
<path d="M132.717 297.92C132.717 298.812 131.993 299.535 131.102 299.535H124.842C123.95 299.535 123.227 298.812 123.227 297.92V296.506C123.227 295.614 123.95 294.891 124.842 294.891H131.102C131.994 294.891 132.717 295.614 132.717 296.506V297.92Z" fill="#E99735"/>
<path d="M27.6081 297.92C27.6081 298.812 27.1011 299.535 26.4754 299.535H22.0858C21.4601 299.535 20.9531 298.812 20.9531 297.92V296.506C20.9531 295.614 21.4601 294.891 22.0858 294.891H26.4754C27.1011 294.891 27.6081 295.614 27.6081 296.506V297.92Z" fill="#E99735"/>
<path d="M213.486 264C216.111 264 217.726 261.779 217.726 258.144C217.726 254.51 217.726 220.383 217.726 219.172C217.726 216.951 216.515 215.766 213.486 215.766C210.457 215.766 173.101 215.766 171.687 215.766C170.273 215.766 168.572 216.235 167.505 220.476C166.437 224.716 160.38 256.731 159.571 259.76C158.764 262.789 161.389 264 163.61 264C165.832 264 213.486 264 213.486 264Z" fill="#021801"/>
<path d="M210.78 261.375C213.12 261.375 214.559 259.396 214.559 256.157C214.559 252.917 214.559 222.507 214.559 221.426C214.559 219.447 213.479 218.391 210.78 218.391C208.081 218.391 174.791 218.391 173.531 218.391C172.271 218.391 170.756 218.809 169.804 222.588C168.853 226.366 163.454 254.896 162.735 257.595C162.015 260.294 164.354 261.374 166.334 261.374C168.313 261.375 210.78 261.375 210.78 261.375Z" fill="#3E736F"/>
<mask id="mask0_193_335" style="mask-type:luminance" maskUnits="userSpaceOnUse" x="162" y="218" width="53" height="44">
<path d="M210.773 261.379C213.112 261.379 214.551 259.4 214.551 256.161C214.551 252.921 214.551 222.511 214.551 221.43C214.551 219.451 213.472 218.395 210.773 218.395C208.073 218.395 174.783 218.395 173.523 218.395C172.264 218.395 170.748 218.813 169.796 222.592C168.845 226.37 163.447 254.9 162.727 257.599C162.007 260.298 164.347 261.378 166.326 261.378C168.305 261.379 210.773 261.379 210.773 261.379Z" fill="white"/>
</mask>
<g mask="url(#mask0_193_335)">
<path d="M145.68 269.519L222.079 204.633" stroke="#6A9994" stroke-width="8" stroke-miterlimit="10"/>
<path d="M133.453 269.519L209.852 204.633" stroke="#6A9994" stroke-width="5" stroke-miterlimit="10"/>
</g>
<path d="M159.039 201C159.039 201.956 158.265 202.731 157.309 202.731C156.353 202.731 155.578 201.956 155.578 201C155.578 200.044 156.352 199.27 157.309 199.27C158.265 199.27 159.039 200.044 159.039 201Z" fill="#BD3E00"/>
<path d="M151.41 202.731C152.366 202.731 153.141 201.956 153.141 201C153.141 200.044 152.366 199.27 151.41 199.27C150.454 199.27 149.68 200.044 149.68 201C149.68 201.956 150.454 202.731 151.41 202.731Z" fill="#BD3E00"/>
<path d="M58.8165 202.731C59.7723 202.731 60.5471 201.956 60.5471 201C60.5471 200.044 59.7723 199.27 58.8165 199.27C57.8607 199.27 57.0859 200.044 57.0859 201C57.0859 201.956 57.8607 202.731 58.8165 202.731Z" fill="#BD3E00"/>
<path d="M52.9181 202.731C53.8739 202.731 54.6487 201.956 54.6487 201C54.6487 200.044 53.8739 199.27 52.9181 199.27C51.9623 199.27 51.1875 200.044 51.1875 201C51.1875 201.956 51.9623 202.731 52.9181 202.731Z" fill="#BD3E00"/>
<path d="M156.546 204.633C153.623 204.633 70.5148 204.633 47.1157 204.633C44.2016 211.019 27.3134 252.951 25.3047 257.942C47.4154 257.942 130.972 257.942 135.142 257.942C139.988 257.942 140.717 256.094 141.402 254.434C143.823 248.568 158.013 213.25 159.979 208.874C161.015 206.565 159.979 204.633 156.546 204.633Z" fill="#021801"/>
<path d="M152.321 207.711C149.594 207.711 62.6279 207.711 45.7805 207.711C41.4726 217.875 30.4904 245.075 26.5469 254.858C41.6243 254.858 129.49 254.858 133.391 254.858C137.677 254.858 138.321 253.224 138.927 251.756C141.069 246.567 153.618 215.332 155.357 211.461C156.274 209.42 155.357 207.711 152.321 207.711Z" fill="#3E736F"/>
<mask id="mask1_193_335" style="mask-type:luminance" maskUnits="userSpaceOnUse" x="26" y="207" width="130" height="48">
<path d="M152.314 207.711C149.586 207.711 62.62 207.711 45.7727 207.711C41.4647 217.875 30.4826 245.075 26.5391 254.858C41.6165 254.858 129.482 254.858 133.383 254.858C137.669 254.858 138.313 253.224 138.919 251.756C141.061 246.567 153.61 215.332 155.349 211.461C156.266 209.42 155.349 207.711 152.314 207.711Z" fill="white"/>
</mask>
<g mask="url(#mask1_193_335)">
<path d="M37.8125 262.652L114.212 197.766" stroke="#6A9994" stroke-width="10" stroke-miterlimit="10"/>
<path d="M22.3516 262.652L98.7506 197.766" stroke="#6A9994" stroke-width="7" stroke-miterlimit="10"/>
</g>
<path d="M200.168 249.585C200.168 250.477 199.445 251.2 198.553 251.2H186.842C185.949 251.2 185.227 250.476 185.227 249.585V222.728C185.227 221.836 185.95 221.113 186.842 221.113H198.553C199.446 221.113 200.168 221.837 200.168 222.728V249.585Z" fill="#021801"/>
<path d="M162.853 215.667C164.191 215.667 165.276 214.582 165.276 213.244C165.276 211.905 164.191 210.82 162.853 210.82C161.515 210.82 160.43 211.905 160.43 213.244C160.43 214.582 161.515 215.667 162.853 215.667Z" fill="#021801"/>
<path d="M166.284 271.126C166.284 272.465 165.199 273.55 163.861 273.55C162.522 273.55 161.438 272.465 161.438 271.126C161.438 269.788 162.522 268.703 163.861 268.703C165.199 268.703 166.284 269.788 166.284 271.126Z" fill="#021801"/>
<path d="M162.859 213.242C162.859 213.242 186.846 213.242 189.874 213.242C192.903 213.242 192.701 214.318 192.701 216.942C192.701 219.567 192.701 265.607 192.701 267.02C192.701 268.434 192.5 271.127 190.278 271.127C188.057 271.127 163.866 271.127 163.866 271.127" stroke="#021801" stroke-width="3" stroke-miterlimit="10"/>
<path d="M378.457 102.722H372.389C370.493 95.9385 364.292 91.0218 356.936 91.0218C354.408 91.0218 352.015 91.6022 349.888 92.6422C348.475 83.3335 340.433 76.1953 330.728 76.1953C320.024 76.1953 311.347 84.8865 311.347 95.588C311.347 98.1043 311.827 100.491 312.698 102.726H311.82C305.311 102.726 300 107.977 300 114.486V116.241C300 122.295 304.947 127.219 311.001 127.219H378.75C385.356 127.219 390.723 121.852 390.723 115.248V114.953C390.723 108.186 385.224 102.722 378.457 102.722Z" fill="white"/>
<path d="M399.256 58.7625H395.425C394.22 54.4773 390.307 51.369 385.659 51.369C384.062 51.369 382.549 51.7358 381.207 52.3927C380.313 46.5104 375.232 42 369.101 42C362.337 42 356.858 47.49 356.858 54.2521C356.858 55.8423 357.162 57.3488 357.712 58.7602H357.155C353.044 58.7602 349.688 62.0774 349.688 66.1909V67.3005C349.688 71.1284 352.812 74.2367 356.638 74.2367H399.439C403.615 74.2367 407.004 70.8452 407.004 66.6737V66.488C407.004 62.2144 403.531 58.7625 399.256 58.7625Z" fill="white"/>
<path d="M257.899 70.0052H251.957C250.088 63.3571 244.016 58.535 236.806 58.535C234.328 58.535 231.98 59.104 229.899 60.1231C228.512 50.9974 220.629 44 211.118 44C200.624 44 192.125 52.5171 192.125 63.0078C192.125 65.4747 192.596 67.812 193.45 70.0016H192.585C186.208 70.0016 181 75.1479 181 81.5294V83.2509C181 89.1895 185.847 94.0116 191.782 94.0116H258.184C264.662 94.0116 269.92 88.7501 269.92 82.2785V81.9904C269.92 75.3604 264.533 70.0052 257.899 70.0052Z" fill="white"/>
<path d="M318 257.692V230.111L323.841 228.488V257.692H318Z" fill="white"/>
<path d="M334.307 258.198C332.516 258.198 330.88 257.737 329.401 256.816C327.934 255.894 326.759 254.661 325.877 253.117C325.007 251.559 324.572 249.839 324.572 247.957C324.572 246.53 324.825 245.199 325.332 243.966C325.838 242.72 326.532 241.63 327.415 240.695C328.31 239.748 329.349 239.008 330.53 238.476C331.711 237.944 332.97 237.678 334.307 237.678C336.098 237.678 337.727 238.138 339.194 239.06C340.673 239.982 341.848 241.221 342.717 242.779C343.6 244.336 344.041 246.062 344.041 247.957C344.041 249.372 343.788 250.696 343.282 251.929C342.776 253.162 342.075 254.252 341.179 255.2C340.297 256.134 339.265 256.868 338.084 257.4C336.916 257.932 335.657 258.198 334.307 258.198ZM334.307 252.357C335.047 252.357 335.709 252.156 336.293 251.754C336.89 251.351 337.357 250.819 337.694 250.157C338.032 249.482 338.201 248.749 338.201 247.957C338.201 247.14 338.019 246.393 337.656 245.718C337.305 245.043 336.831 244.511 336.234 244.122C335.65 243.72 335.008 243.518 334.307 243.518C333.58 243.518 332.918 243.726 332.321 244.141C331.737 244.544 331.27 245.082 330.919 245.757C330.582 246.432 330.413 247.166 330.413 247.957C330.413 248.788 330.588 249.534 330.939 250.196C331.302 250.858 331.776 251.384 332.36 251.773C332.957 252.163 333.606 252.357 334.307 252.357Z" fill="white"/>
<path d="M358.791 238.223H364.632V257.692H358.772L358.499 255.94C358.019 256.615 357.409 257.16 356.669 257.575C355.942 257.99 355.092 258.198 354.119 258.198C352.665 258.198 351.302 257.926 350.03 257.38C348.771 256.835 347.662 256.082 346.701 255.122C345.741 254.149 344.988 253.032 344.443 251.773C343.91 250.501 343.644 249.138 343.644 247.685C343.644 246.296 343.897 244.998 344.404 243.791C344.91 242.584 345.617 241.526 346.526 240.618C347.447 239.696 348.505 238.976 349.699 238.456C350.906 237.937 352.198 237.678 353.574 237.678C354.69 237.678 355.702 237.911 356.611 238.379C357.532 238.833 358.35 239.404 359.064 240.092L358.791 238.223ZM353.963 252.591C354.768 252.591 355.501 252.383 356.163 251.968C356.825 251.553 357.351 250.995 357.74 250.294C358.129 249.593 358.324 248.814 358.324 247.957C358.324 247.101 358.129 246.322 357.74 245.621C357.351 244.92 356.825 244.362 356.163 243.947C355.501 243.531 354.768 243.324 353.963 243.324C353.158 243.324 352.425 243.531 351.763 243.947C351.114 244.362 350.595 244.92 350.205 245.621C349.829 246.322 349.641 247.101 349.641 247.957C349.641 248.814 349.836 249.593 350.225 250.294C350.614 250.995 351.133 251.553 351.782 251.968C352.444 252.383 353.171 252.591 353.963 252.591Z" fill="white"/>
<path d="M379.842 230.111L385.682 228.488V257.692H379.842V255.901C379.245 256.576 378.531 257.127 377.7 257.556C376.882 257.984 375.948 258.198 374.896 258.198C373.482 258.198 372.158 257.932 370.925 257.4C369.692 256.868 368.602 256.134 367.654 255.2C366.719 254.252 365.986 253.162 365.454 251.929C364.922 250.696 364.656 249.372 364.656 247.957C364.656 246.543 364.922 245.219 365.454 243.986C365.986 242.753 366.719 241.669 367.654 240.734C368.602 239.787 369.692 239.047 370.925 238.515C372.158 237.983 373.482 237.717 374.896 237.717C375.948 237.717 376.882 237.931 377.7 238.359C378.531 238.774 379.245 239.326 379.842 240.014V230.111ZM374.974 252.591C375.779 252.591 376.512 252.383 377.174 251.968C377.836 251.553 378.362 250.995 378.751 250.294C379.141 249.593 379.335 248.814 379.335 247.957C379.335 247.101 379.141 246.322 378.751 245.621C378.362 244.92 377.836 244.362 377.174 243.947C376.512 243.531 375.779 243.324 374.974 243.324C374.17 243.324 373.436 243.531 372.774 243.947C372.125 244.362 371.606 244.92 371.217 245.621C370.84 246.322 370.652 247.101 370.652 247.957C370.652 248.814 370.847 249.593 371.236 250.294C371.626 250.995 372.145 251.553 372.794 251.968C373.456 252.383 374.183 252.591 374.974 252.591Z" fill="white"/>
<path d="M406.588 257.692H399.851L395.957 250.995L393.855 253.487V257.692H388.014V230.111L393.855 228.488V244.414L399.034 238.223H406.665L399.968 246.244L406.588 257.692Z" fill="white"/>
<path d="M419.658 238.223H425.499V257.692H419.639L419.366 255.94C418.886 256.615 418.276 257.16 417.536 257.575C416.809 257.99 415.959 258.198 414.985 258.198C413.532 258.198 412.169 257.926 410.897 257.38C409.638 256.835 408.528 256.082 407.568 255.122C406.607 254.149 405.854 253.032 405.309 251.773C404.777 250.501 404.511 249.138 404.511 247.685C404.511 246.296 404.764 244.998 405.27 243.791C405.777 242.584 406.484 241.526 407.392 240.618C408.314 239.696 409.372 238.976 410.566 238.456C411.773 237.937 413.064 237.678 414.44 237.678C415.557 237.678 416.569 237.911 417.477 238.379C418.399 238.833 419.217 239.404 419.931 240.092L419.658 238.223ZM414.83 252.591C415.634 252.591 416.368 252.383 417.03 251.968C417.692 251.553 418.217 250.995 418.607 250.294C418.996 249.593 419.191 248.814 419.191 247.957C419.191 247.101 418.996 246.322 418.607 245.621C418.217 244.92 417.692 244.362 417.03 243.947C416.368 243.531 415.634 243.324 414.83 243.324C414.025 243.324 413.292 243.531 412.63 243.947C411.981 244.362 411.462 244.92 411.072 245.621C410.696 246.322 410.508 247.101 410.508 247.957C410.508 248.814 410.702 249.593 411.092 250.294C411.481 250.995 412 251.553 412.649 251.968C413.311 252.383 414.038 252.591 414.83 252.591Z" fill="white"/>
<path d="M427.09 257.692L427.071 238.223H432.912L432.931 239.449C433.58 238.891 434.32 238.456 435.151 238.145C435.981 237.833 436.857 237.678 437.779 237.678C438.48 237.678 439.194 237.782 439.92 237.989L437.623 243.908C437.169 243.7 436.702 243.596 436.221 243.596C435.611 243.596 435.053 243.746 434.547 244.044C434.054 244.33 433.658 244.725 433.359 245.232C433.074 245.725 432.931 246.277 432.931 246.887V257.692H427.09Z" fill="white"/>
<path d="M447.332 258.198C445.541 258.198 443.906 257.737 442.426 256.816C440.959 255.894 439.785 254.661 438.902 253.117C438.033 251.559 437.598 249.839 437.598 247.957C437.598 246.53 437.851 245.199 438.357 243.966C438.863 242.72 439.558 241.63 440.44 240.695C441.336 239.748 442.374 239.008 443.555 238.476C444.736 237.944 445.995 237.678 447.332 237.678C449.124 237.678 450.752 238.138 452.219 239.06C453.699 239.982 454.873 241.221 455.743 242.779C456.626 244.336 457.067 246.062 457.067 247.957C457.067 249.372 456.814 250.696 456.308 251.929C455.801 253.162 455.101 254.252 454.205 255.2C453.322 256.134 452.29 256.868 451.109 257.4C449.941 257.932 448.682 258.198 447.332 258.198ZM447.332 252.357C448.072 252.357 448.734 252.156 449.318 251.754C449.915 251.351 450.383 250.819 450.72 250.157C451.057 249.482 451.226 248.749 451.226 247.957C451.226 247.14 451.044 246.393 450.681 245.718C450.331 245.043 449.857 244.511 449.26 244.122C448.676 243.72 448.033 243.518 447.332 243.518C446.605 243.518 445.944 243.726 445.347 244.141C444.762 244.544 444.295 245.082 443.945 245.757C443.607 246.432 443.439 247.166 443.439 247.957C443.439 248.788 443.614 249.534 443.964 250.196C444.328 250.858 444.801 251.384 445.385 251.773C445.982 252.163 446.631 252.357 447.332 252.357Z" fill="white"/>
<path d="M421.258 226.963L408.851 231.925L414.021 226.963L408.851 222L421.258 226.963Z" fill="#124246"/>
<path d="M438.055 226.963L425.648 231.925L430.817 226.963L425.648 222L438.055 226.963Z" fill="#E6B355"/>
<path d="M457.523 226.963L445.117 231.925L450.286 226.963L445.117 222L457.523 226.963Z" fill="#F9A837"/>
</svg>
