<svg width="19" height="19" viewBox="0 0 19 19" fill="none" xmlns="http://www.w3.org/2000/svg">
<path fill-rule="evenodd" clip-rule="evenodd" d="M16.5018 1.48468C15.5743 0.55719 14.0705 0.557187 13.143 1.48468L1.93495 12.6928C1.6034 13.0244 1.37741 13.4466 1.28545 13.9063L0.82069 16.2302C0.599112 17.3381 1.5759 18.3149 2.68379 18.0933L5.0076 17.6285C5.46738 17.5366 5.88965 17.3106 6.2212 16.979L17.4293 5.77093C18.3568 4.84344 18.3568 3.33968 17.4293 2.41218L16.5018 1.48468ZM14.2626 2.60427C14.5718 2.29511 15.073 2.29511 15.3822 2.60427L16.3097 3.53177C16.6189 3.84093 16.6189 4.34218 16.3097 4.65135L14.1947 6.76636L12.1477 4.71928L14.2626 2.60427ZM11.028 5.83887L3.05454 13.8124C2.94402 13.9229 2.86869 14.0637 2.83804 14.2169L2.37327 16.5407L4.69709 16.0759C4.85034 16.0453 4.9911 15.97 5.10162 15.8595L13.0751 7.88594L11.028 5.83887Z" fill="#0F0F0F"/>
</svg>
