<svg width="29" height="29" viewBox="0 0 29 29" fill="none" xmlns="http://www.w3.org/2000/svg">
<path d="M2 13.1111C2 7.87328 2 5.25437 3.62718 3.62718C5.25437 2 7.87328 2 13.1111 2H15.8889C21.1267 2 23.7457 2 25.3728 3.62718C27 5.25437 27 7.87328 27 13.1111V15.8889C27 21.1267 27 23.7457 25.3728 25.3728C23.7457 27 21.1267 27 15.8889 27H13.1111C7.87328 27 5.25437 27 3.62718 25.3728C2 23.7457 2 21.1267 2 15.8889V13.1111Z" stroke="black" stroke-width="2.77778"/>
<path d="M20.7474 10.3307C21.898 10.3307 22.8307 9.39799 22.8307 8.2474C22.8307 7.0968 21.898 6.16406 20.7474 6.16406C19.5968 6.16406 18.6641 7.0968 18.6641 8.2474C18.6641 9.39799 19.5968 10.3307 20.7474 10.3307Z" fill="#33363F"/>
<path d="M14.5026 18.6693C16.8038 18.6693 18.6693 16.8038 18.6693 14.5026C18.6693 12.2014 16.8038 10.3359 14.5026 10.3359C12.2014 10.3359 10.3359 12.2014 10.3359 14.5026C10.3359 16.8038 12.2014 18.6693 14.5026 18.6693Z" stroke="black" stroke-width="2.77778"/>
</svg>
