<svg width="35" height="25" viewBox="0 0 35 25" fill="none" xmlns="http://www.w3.org/2000/svg">
<path d="M0 17.5856C0 14.1635 1.23574 10.7098 3.70722 7.22433C6.17871 3.73891 8.49176 1.3308 10.6464 0C12.801 0.887199 14.6071 2.12294 16.0646 3.70722C15.1141 6.30545 13.2763 9.22053 10.5513 12.4525C11.2484 12.4525 12.0406 12.5475 12.9278 12.7376C13.5615 14.5754 13.8783 16.5399 13.8783 18.6312C13.8783 20.7224 13.7516 22.5602 13.4981 24.1445C10.8999 24.7148 8.74525 25 7.03422 25C5.32319 25 3.23194 24.9049 0.760456 24.7148C0.253485 22.18 0 19.8035 0 17.5856ZM19.6768 24.7148C19.1065 22.4335 18.8213 19.8352 18.8213 16.9202C18.8213 13.9417 20.057 10.7414 22.5285 7.31939C25 3.83397 27.3131 1.39417 29.4677 0C31.6223 0.887199 33.4284 2.12294 34.8859 3.70722C33.9987 6.30545 32.1926 9.22053 29.4677 12.4525C30.2281 12.4525 31.0203 12.5475 31.8441 12.7376C32.4145 14.6388 32.6996 16.635 32.6996 18.7262C32.6996 20.7541 32.6046 22.5602 32.4144 24.1445C29.8162 24.7148 27.6616 25 25.9506 25C24.2395 25 22.1483 24.9049 19.6768 24.7148Z" fill="#124246"/>
</svg>
