<svg width="37" height="25" viewBox="0 0 37 25" fill="none" xmlns="http://www.w3.org/2000/svg">
<path d="M3.9267 16.3613C3.9267 10.3403 6.93717 4.05759 10.4712 4.05759C12.4346 4.05759 14.0052 5.2356 16.4921 8.76963C14.1361 12.4346 12.6963 14.6597 12.6963 14.6597C9.55497 19.6335 8.50785 20.6806 6.80628 20.6806C5.10471 20.8115 3.9267 19.2408 3.9267 16.3613ZM24.4764 14.1361L22.2513 10.4712C21.7278 9.55497 21.0733 8.63874 20.5497 7.8534C22.5131 4.84293 24.0838 3.27225 26.0471 3.27225C29.9738 3.27225 33.1152 9.1623 33.1152 16.4921C33.1152 19.2408 32.199 20.8115 30.3665 20.8115C28.534 20.8115 27.8796 19.6335 24.4764 14.1361ZM18.8482 5.2356C15.9686 1.43979 13.4817 0 10.6021 0C4.58115 0 0 7.98429 0 16.3613C0 21.5969 2.48691 24.8691 6.67539 24.8691C9.68586 24.8691 11.7801 23.4293 15.7068 16.623C15.7068 16.623 17.2775 13.7435 18.4555 11.7801C18.8482 12.4346 19.2408 13.089 19.6335 13.8743L21.466 17.0157C25 23.0366 26.9634 25 30.4974 25C34.555 25 36.7801 21.5969 36.7801 16.2304C36.6492 7.32984 31.9372 0 26.3089 0C23.2984 0 20.9424 2.35602 18.8482 5.2356Z" fill="black"/>
</svg>
