<svg width="108" height="29" viewBox="0 0 108 29" fill="none" xmlns="http://www.w3.org/2000/svg">
<path d="M0 27.6281V6.27925L4.52092 5.02344V27.6281H0Z" fill="#124246"/>
<path d="M12.6221 28.0199C11.2357 28.0199 9.96981 27.6632 8.82451 26.9499C7.68926 26.2366 6.78005 25.2822 6.09689 24.0867C5.42377 22.8811 5.08722 21.5499 5.08722 20.0932C5.08722 18.9881 5.28312 17.9583 5.67494 17.0039C6.06675 16.0394 6.60424 15.1955 7.2874 14.4722C7.98061 13.7388 8.78433 13.1661 9.69856 12.7542C10.6128 12.3423 11.5873 12.1364 12.6221 12.1364C14.0085 12.1364 15.2693 12.493 16.4046 13.2063C17.5499 13.9196 18.4591 14.8791 19.1322 16.0846C19.8154 17.2902 20.157 18.6264 20.157 20.0932C20.157 21.1883 19.9611 22.213 19.5692 23.1674C19.1774 24.1218 18.6349 24.9657 17.9417 25.6991C17.2585 26.4225 16.4599 26.9901 15.5456 27.402C14.6414 27.8139 13.6669 28.0199 12.6221 28.0199ZM12.6221 23.4989C13.1947 23.4989 13.7071 23.3432 14.1592 23.0318C14.6213 22.7203 14.983 22.3084 15.2442 21.7961C15.5054 21.2736 15.636 20.706 15.636 20.0932C15.636 19.4603 15.4954 18.8826 15.2141 18.3602C14.9428 17.8377 14.5761 17.4258 14.114 17.1244C13.6619 16.813 13.1646 16.6573 12.6221 16.6573C12.0595 16.6573 11.5471 16.818 11.085 17.1395C10.6329 17.451 10.2712 17.8679 9.99995 18.3903C9.73874 18.9127 9.60814 19.4803 9.60814 20.0932C9.60814 20.7362 9.74377 21.3138 10.015 21.8262C10.2963 22.3386 10.663 22.7455 11.1151 23.0469C11.5773 23.3482 12.0796 23.4989 12.6221 23.4989Z" fill="#124246"/>
<path d="M31.5739 12.5583H36.0949V27.6281H31.5589L31.3479 26.2718C30.9762 26.7942 30.504 27.2162 29.9313 27.5376C29.3687 27.8591 28.7107 28.0199 27.9572 28.0199C26.832 28.0199 25.7771 27.8089 24.7926 27.3869C23.818 26.965 22.9591 26.3823 22.2156 25.6389C21.4722 24.8854 20.8895 24.0214 20.4675 23.0469C20.0556 22.0623 19.8497 21.0074 19.8497 19.8822C19.8497 18.8072 20.0456 17.8026 20.4374 16.8683C20.8292 15.9339 21.3767 15.1151 22.08 14.4119C22.7933 13.6986 23.6121 13.141 24.5364 12.7391C25.4707 12.3373 26.4703 12.1364 27.5352 12.1364C28.3992 12.1364 29.1829 12.3172 29.8861 12.6789C30.5994 13.0305 31.2324 13.4725 31.7849 14.005L31.5739 12.5583ZM27.8366 23.6798C28.4595 23.6798 29.0272 23.519 29.5395 23.1976C30.0519 22.8761 30.4588 22.4441 30.7602 21.9016C31.0616 21.359 31.2123 20.7563 31.2123 20.0932C31.2123 19.4301 31.0616 18.8273 30.7602 18.2848C30.4588 17.7423 30.0519 17.3103 29.5395 16.9888C29.0272 16.6673 28.4595 16.5066 27.8366 16.5066C27.2138 16.5066 26.6461 16.6673 26.1338 16.9888C25.6314 17.3103 25.2296 17.7423 24.9282 18.2848C24.6368 18.8273 24.4912 19.4301 24.4912 20.0932C24.4912 20.7563 24.6419 21.359 24.9433 21.9016C25.2446 22.4441 25.6465 22.8761 26.1488 23.1976C26.6612 23.519 27.2238 23.6798 27.8366 23.6798Z" fill="#124246"/>
<path d="M47.8676 6.27925L52.3886 5.02344V27.6281H47.8676V26.2416C47.4055 26.7641 46.8529 27.191 46.21 27.5226C45.577 27.8541 44.8537 28.0199 44.0399 28.0199C42.9448 28.0199 41.9201 27.8139 40.9657 27.402C40.0113 26.9901 39.1674 26.4225 38.434 25.6991C37.7106 24.9657 37.143 24.1218 36.7311 23.1674C36.3192 22.213 36.1132 21.1883 36.1132 20.0932C36.1132 18.9981 36.3192 17.9734 36.7311 17.019C37.143 16.0645 37.7106 15.2257 38.434 14.5023C39.1674 13.7689 40.0113 13.1963 40.9657 12.7844C41.9201 12.3725 42.9448 12.1665 44.0399 12.1665C44.8537 12.1665 45.577 12.3323 46.21 12.6638C46.8529 12.9853 47.4055 13.4123 47.8676 13.9447V6.27925ZM44.1002 23.6798C44.7231 23.6798 45.2907 23.519 45.8031 23.1976C46.3154 22.8761 46.7223 22.4441 47.0237 21.9016C47.3251 21.359 47.4758 20.7563 47.4758 20.0932C47.4758 19.4301 47.3251 18.8273 47.0237 18.2848C46.7223 17.7423 46.3154 17.3103 45.8031 16.9888C45.2907 16.6673 44.7231 16.5066 44.1002 16.5066C43.4773 16.5066 42.9097 16.6673 42.3973 16.9888C41.895 17.3103 41.4931 17.7423 41.1917 18.2848C40.9004 18.8273 40.7547 19.4301 40.7547 20.0932C40.7547 20.7563 40.9054 21.359 41.2068 21.9016C41.5082 22.4441 41.9101 22.8761 42.4124 23.1976C42.9248 23.519 43.4874 23.6798 44.1002 23.6798Z" fill="#124246"/>
<path d="M68.5699 27.6281H63.3558L60.3418 22.4441L58.7143 24.373V27.6281H54.1934V6.27925L58.7143 5.02344V17.3505L62.7229 12.5583H68.6302L63.4462 18.767L68.5699 27.6281Z" fill="#124246"/>
<path d="M78.6869 12.5583H83.2078V27.6281H78.6718L78.4609 26.2718C78.0891 26.7942 77.617 27.2162 77.0443 27.5376C76.4817 27.8591 75.8237 28.0199 75.0702 28.0199C73.945 28.0199 72.8901 27.8089 71.9055 27.3869C70.931 26.965 70.072 26.3823 69.3286 25.6389C68.5852 24.8854 68.0025 24.0214 67.5805 23.0469C67.1686 22.0623 66.9626 21.0074 66.9626 19.8822C66.9626 18.8072 67.1586 17.8026 67.5504 16.8683C67.9422 15.9339 68.4897 15.1151 69.193 14.4119C69.9063 13.6986 70.7251 13.141 71.6493 12.7391C72.5837 12.3373 73.5833 12.1364 74.6482 12.1364C75.5122 12.1364 76.2958 12.3172 76.9991 12.6789C77.7124 13.0305 78.3453 13.4725 78.8979 14.005L78.6869 12.5583ZM74.9496 23.6798C75.5725 23.6798 76.1401 23.519 76.6525 23.1976C77.1649 22.8761 77.5717 22.4441 77.8731 21.9016C78.1745 21.359 78.3252 20.7563 78.3252 20.0932C78.3252 19.4301 78.1745 18.8273 77.8731 18.2848C77.5717 17.7423 77.1649 17.3103 76.6525 16.9888C76.1401 16.6673 75.5725 16.5066 74.9496 16.5066C74.3267 16.5066 73.7591 16.6673 73.2467 16.9888C72.7444 17.3103 72.3425 17.7423 72.0412 18.2848C71.7498 18.8273 71.6041 19.4301 71.6041 20.0932C71.6041 20.7563 71.7548 21.359 72.0562 21.9016C72.3576 22.4441 72.7595 22.8761 73.2618 23.1976C73.7742 23.519 74.3368 23.6798 74.9496 23.6798Z" fill="#124246"/>
<path d="M84.4398 27.6281L84.4247 12.5583H88.9456L88.9607 13.5077C89.463 13.0757 90.0357 12.7391 90.6787 12.498C91.3216 12.2569 91.9998 12.1364 92.7131 12.1364C93.2556 12.1364 93.8081 12.2167 94.3707 12.3775L92.5925 16.9587C92.2409 16.7979 91.8792 16.7176 91.5075 16.7176C91.0353 16.7176 90.6033 16.8331 90.2115 17.0642C89.8297 17.2852 89.5233 17.5916 89.2922 17.9834C89.0712 18.3652 88.9607 18.7922 88.9607 19.2643V27.6281H84.4398Z" fill="#124246"/>
<path d="M100.108 28.0199C98.7214 28.0199 97.4556 27.6632 96.3103 26.9499C95.175 26.2366 94.2658 25.2822 93.5826 24.0867C92.9095 22.8811 92.573 21.5499 92.573 20.0932C92.573 18.9881 92.7689 17.9583 93.1607 17.0039C93.5525 16.0394 94.09 15.1955 94.7731 14.4722C95.4664 13.7388 96.2701 13.1661 97.1843 12.7542C98.0985 12.3423 99.0731 12.1364 100.108 12.1364C101.494 12.1364 102.755 12.493 103.89 13.2063C105.036 13.9196 105.945 14.8791 106.618 16.0846C107.301 17.2902 107.643 18.6264 107.643 20.0932C107.643 21.1883 107.447 22.213 107.055 23.1674C106.663 24.1218 106.121 24.9657 105.427 25.6991C104.744 26.4225 103.946 26.9901 103.031 27.402C102.127 27.8139 101.153 28.0199 100.108 28.0199ZM100.108 23.4989C100.68 23.4989 101.193 23.3432 101.645 23.0318C102.107 22.7203 102.469 22.3084 102.73 21.7961C102.991 21.2736 103.122 20.706 103.122 20.0932C103.122 19.4603 102.981 18.8826 102.7 18.3602C102.429 17.8377 102.062 17.4258 101.6 17.1244C101.148 16.813 100.65 16.6573 100.108 16.6573C99.5452 16.6573 99.0329 16.818 98.5707 17.1395C98.1186 17.451 97.757 17.8679 97.4857 18.3903C97.2245 18.9127 97.0939 19.4803 97.0939 20.0932C97.0939 20.7362 97.2295 21.3138 97.5008 21.8262C97.7821 22.3386 98.1488 22.7455 98.6009 23.0469C99.063 23.3482 99.5653 23.4989 100.108 23.4989Z" fill="#124246"/>
<path d="M79.9297 3.84131L70.3264 7.68261L74.3278 3.84131L70.3264 -4.47757e-07L79.9297 3.84131Z" fill="#124246"/>
<path d="M92.9297 3.84131L83.3264 7.68261L87.3278 3.84131L83.3264 -4.19772e-07L92.9297 3.84131Z" fill="#E6B355"/>
<path d="M108 3.84131L98.3967 7.68261L102.398 3.84131L98.3967 -4.19772e-07L108 3.84131Z" fill="#E09F43"/>
</svg>
