<svg width="30" height="30" viewBox="0 0 30 30" fill="none" xmlns="http://www.w3.org/2000/svg">
<path fill-rule="evenodd" clip-rule="evenodd" d="M15 3.48926C21.3574 3.48926 26.5107 8.64316 26.5107 15C26.5107 21.3568 21.3574 26.5107 15 26.5107C8.64316 26.5107 3.48926 21.3568 3.48926 15C3.48926 8.64316 8.64316 3.48926 15 3.48926ZM15 0C19.1414 0 22.892 1.6793 25.6066 4.39336C28.3207 7.10801 30 10.858 30 15C30 19.142 28.3207 22.8926 25.6066 25.6066C22.8926 28.3207 19.142 30 15 30C10.858 30 7.10801 28.3207 4.39336 25.6066C1.6793 22.892 0 19.1414 0 15C0 10.858 1.6793 7.10801 4.39336 4.39336C7.10801 1.6793 10.858 0 15 0ZM24.5672 5.43281C22.1186 2.98477 18.7359 1.47012 15 1.47012C11.2635 1.47012 7.88086 2.98477 5.43281 5.43281C2.98477 7.88086 1.47012 11.2635 1.47012 15C1.47012 18.7359 2.98477 22.1186 5.43281 24.5672C7.88086 27.0152 11.2635 28.5299 15 28.5299C18.7365 28.5299 22.1191 27.0152 24.5672 24.5672C27.0152 22.1191 28.5299 18.7365 28.5299 15C28.5299 11.2635 27.0152 7.88086 24.5672 5.43281ZM16.7666 12.8186C16.732 12.426 16.5744 12.1236 16.2943 11.9039C16.1004 11.7521 15.8473 11.6525 15.5373 11.6062V13.8826L16.1021 14.0104C16.6395 14.1281 17.1164 14.2828 17.5312 14.4779C17.9438 14.673 18.2912 14.9074 18.5736 15.1775C18.8561 15.4447 19.0705 15.757 19.2152 16.1074C19.3605 16.4596 19.4355 16.8545 19.4402 17.2887C19.4355 17.9783 19.2609 18.5684 18.9182 19.0629C18.5736 19.5557 18.0785 19.9354 17.434 20.1979C16.8961 20.4176 16.2633 20.5447 15.5373 20.5799V21.8145H14.6625V20.5793C13.9342 20.5418 13.2867 20.4094 12.7213 20.1803C12.0416 19.9078 11.5143 19.493 11.1393 18.9357C10.7619 18.3785 10.5697 17.6736 10.5592 16.8217H13.0834C13.1033 17.1715 13.1982 17.4662 13.3629 17.6988C13.5305 17.9338 13.7607 18.1113 14.0525 18.2309C14.2383 18.3082 14.4416 18.3604 14.6625 18.3885V15.9861L13.8803 15.8045C12.9363 15.5877 12.1939 15.2373 11.649 14.7527C11.1064 14.2682 10.8369 13.6131 10.8393 12.7857C10.8369 12.1113 11.0191 11.5189 11.3842 11.0115C11.7492 10.5047 12.2537 10.1098 12.9012 9.825C13.4291 9.59414 14.0156 9.45703 14.6625 9.41426V8.18555H15.5373V9.4125C16.2047 9.45293 16.7965 9.5918 17.3115 9.82734C17.9361 10.1145 18.4184 10.5146 18.7635 11.0291C19.1086 11.5441 19.2832 12.1389 19.2908 12.8186H16.7666ZM14.6625 11.6062C14.5102 11.6285 14.3736 11.6625 14.2529 11.7088C14.0256 11.799 13.8557 11.9215 13.7432 12.0738C13.6283 12.2285 13.5709 12.4061 13.5656 12.6035C13.5604 12.7688 13.5932 12.9111 13.6658 13.0359C13.7379 13.1607 13.8457 13.2686 13.9852 13.3629C14.1258 13.4584 14.2957 13.5404 14.4926 13.6107C14.5477 13.6301 14.6045 13.6488 14.6625 13.6664V11.6062ZM15.5373 18.382C15.6996 18.358 15.8479 18.3205 15.982 18.2684C16.2316 18.1734 16.4244 18.041 16.5592 17.8711C16.6945 17.6988 16.7643 17.5037 16.7666 17.284C16.7643 17.0789 16.6992 16.902 16.5744 16.7543C16.4496 16.6066 16.2592 16.4795 16.002 16.3717C15.8666 16.3143 15.7113 16.2592 15.5373 16.2064V18.382Z" fill="white"/>
</svg>
