<svg width="36" height="25" viewBox="0 0 36 25" fill="none" xmlns="http://www.w3.org/2000/svg">
<path d="M35.6047 7.41445C35.6047 10.8365 34.3689 14.2902 31.8975 17.7757C29.426 21.2611 27.1129 23.6692 24.9583 25C22.8037 24.1128 20.9976 22.8771 19.54 21.2928C20.4906 18.6946 22.3284 15.7795 25.0534 12.5475C24.3563 12.5475 23.5641 12.4525 22.6769 12.2624C22.0432 10.4246 21.7264 8.46008 21.7264 6.36882C21.7264 4.27757 21.8531 2.4398 22.1066 0.855514C24.7048 0.285171 26.8594 0 28.5705 0C30.2815 0 32.3727 0.0950568 34.8442 0.28517C35.3512 2.82002 35.6047 5.19645 35.6047 7.41445ZM15.9279 0.28517C16.4982 2.56654 16.7834 5.16476 16.7834 8.07985C16.7834 11.0583 15.5476 14.2586 13.0762 17.6806C10.6047 21.166 8.29163 23.6058 6.137 25C3.98237 24.1128 2.17629 22.8771 0.71875 21.2928C1.60595 18.6946 3.41203 15.7795 6.137 12.5475C5.37654 12.5475 4.5844 12.4525 3.76057 12.2624C3.19023 10.3612 2.90506 8.36502 2.90506 6.27376C2.90506 4.24588 3.00012 2.4398 3.19023 0.855514C5.78846 0.285171 7.94308 0 9.65411 0C11.3651 0 13.4564 0.0950568 15.9279 0.28517Z" fill="#124246"/>
</svg>
