<svg width="25" height="25" viewBox="0 0 25 25" fill="none" xmlns="http://www.w3.org/2000/svg">
<path fill-rule="evenodd" clip-rule="evenodd" d="M12.5 25C19.4036 25 25 19.4036 25 12.5C25 5.59644 19.4036 0 12.5 0C5.59644 0 0 5.59644 0 12.5C0 19.4036 5.59644 25 12.5 25ZM10.9261 15.5682V15.6534H12.6307V15.5682C12.6402 14.9811 12.7017 14.491 12.8153 14.098C12.929 13.705 13.1113 13.3665 13.3622 13.0824C13.6132 12.7936 13.947 12.5189 14.3636 12.2585C14.7803 12.0028 15.1354 11.7093 15.429 11.3778C15.7273 11.0464 15.9545 10.67 16.1108 10.2486C16.2718 9.82718 16.3523 9.35606 16.3523 8.83523C16.3523 8.09659 16.1818 7.43845 15.8409 6.8608C15.5047 6.28314 15.0265 5.8286 14.4062 5.49716C13.7907 5.16572 13.0663 5 12.233 5C11.4659 5 10.7675 5.15152 10.1378 5.45455C9.51278 5.75758 9.00852 6.19555 8.625 6.76847C8.24621 7.34138 8.03788 8.0303 8 8.83523H9.78977C9.82765 8.27652 9.96733 7.82434 10.2088 7.47869C10.4503 7.13305 10.7509 6.87973 11.1108 6.71875C11.4706 6.55777 11.8447 6.47727 12.233 6.47727C12.678 6.47727 13.0829 6.5696 13.4474 6.75426C13.812 6.93892 14.1032 7.2017 14.321 7.54261C14.5388 7.88352 14.6477 8.28598 14.6477 8.75C14.6477 9.12405 14.5814 9.46496 14.4489 9.77273C14.321 10.0805 14.1458 10.3527 13.9233 10.5895C13.7008 10.8215 13.4498 11.0227 13.1705 11.1932C12.7064 11.4725 12.3087 11.7779 11.9773 12.1094C11.6458 12.4408 11.3902 12.8741 11.2102 13.4091C11.0303 13.9441 10.9356 14.6638 10.9261 15.5682ZM10.9332 19.4815C11.1842 19.7325 11.4848 19.858 11.8352 19.858C12.072 19.858 12.285 19.8011 12.4744 19.6875C12.6686 19.5691 12.8224 19.4129 12.9361 19.2188C13.0545 19.0246 13.1136 18.8116 13.1136 18.5795C13.1136 18.2292 12.9882 17.9285 12.7372 17.6776C12.4863 17.4266 12.1856 17.3011 11.8352 17.3011C11.4848 17.3011 11.1842 17.4266 10.9332 17.6776C10.6823 17.9285 10.5568 18.2292 10.5568 18.5795C10.5568 18.9299 10.6823 19.2306 10.9332 19.4815Z" fill="black"/>
</svg>
