<svg width="20" height="20" viewBox="0 0 20 20" fill="none" xmlns="http://www.w3.org/2000/svg">
<path fill-rule="evenodd" clip-rule="evenodd" d="M11.5374 10.3613L14.1043 11.8433C14.3549 11.988 14.436 12.3167 14.2949 12.5611C14.1495 12.8128 13.8359 12.9038 13.578 12.7549L10.9676 11.2478C10.7003 11.4554 10.3646 11.5789 10 11.5789C9.12797 11.5789 8.42105 10.872 8.42105 10C8.42105 9.31252 8.86043 8.72766 9.47368 8.5109V3.68781C9.47368 3.39514 9.71783 3.15789 10 3.15789C10.2907 3.15789 10.5263 3.40305 10.5263 3.68781V8.5109C11.1396 8.72766 11.5789 9.31252 11.5789 10C11.5789 10.1243 11.5646 10.2453 11.5374 10.3613ZM10 20C15.5228 20 20 15.5228 20 10C20 4.47715 15.5228 0 10 0C4.47715 0 0 4.47715 0 10C0 15.5228 4.47715 20 10 20Z" fill="#838383"/>
</svg>
