<svg width="32" height="20" viewBox="0 0 32 20" fill="none" xmlns="http://www.w3.org/2000/svg">
<path fill-rule="evenodd" clip-rule="evenodd" d="M11.2257 15.4902C11.1542 15.9368 11.1766 16.3932 11.2915 16.8307C11.4063 17.2682 11.6112 17.6774 11.8932 18.0325C12.1752 18.3876 12.5282 18.6808 12.9299 18.8938C13.3317 19.1068 13.7735 19.2349 14.2276 19.2701C14.6816 19.3052 15.1381 19.2467 15.5683 19.0981C15.9984 18.9496 16.393 18.7142 16.727 18.4068C17.061 18.0994 17.3273 17.7268 17.5092 17.3122C17.691 16.8976 17.7844 16.4502 17.7835 15.9981C17.7824 15.828 17.7687 15.6583 17.7426 15.4902H23.4129C23.3922 15.6477 23.382 15.8063 23.3823 15.965C23.3823 16.8459 23.7347 17.6907 24.3621 18.3135C24.9895 18.9364 25.8404 19.2863 26.7277 19.2863C27.6149 19.2863 28.4659 18.9364 29.0933 18.3135C29.7206 17.6907 30.0731 16.8459 30.0731 15.965C30.0736 15.7666 30.0556 15.5686 30.0194 15.3734C30.5487 15.3583 31.0515 15.1401 31.4221 14.7646C31.7927 14.3891 32.0023 13.8856 32.0067 13.3599V6.84438L27.8454 2.40085H22.1443V12.2706H1.68304C1.46338 12.2671 1.25118 12.3496 1.09229 12.5002C0.933401 12.6509 0.840582 12.8575 0.833891 13.0755V14.6802C0.838595 14.8991 0.930189 15.1073 1.08874 15.2595C1.24729 15.4116 1.45996 15.4955 1.68048 15.4928H2.60891C2.58156 15.6607 2.56788 15.8305 2.56799 16.0006C2.55571 16.4383 2.63194 16.8739 2.79216 17.2818C2.95238 17.6897 3.19335 18.0616 3.50082 18.3755C3.8083 18.6893 4.17603 18.9388 4.58229 19.1092C4.98855 19.2795 5.42508 19.3673 5.8661 19.3673C6.30711 19.3673 6.74365 19.2795 7.1499 19.1092C7.55616 18.9388 7.92389 18.6893 8.23137 18.3755C8.53884 18.0616 8.77981 17.6897 8.94003 17.2818C9.10025 16.8739 9.17648 16.4383 9.1642 16.0006C9.16308 15.8306 9.14941 15.6608 9.12328 15.4928H11.2257V15.4902ZM20.1391 0.714844H1.62677C1.34906 0.716179 1.08312 0.82629 0.886751 1.02124C0.690383 1.21618 0.57947 1.48021 0.578125 1.7559L0.578125 11.4479H21.1878V1.7559C21.1871 1.48 21.0764 1.21559 20.8799 1.0205C20.6834 0.825412 20.417 0.715514 20.1391 0.714844ZM4.59622 16.0158C4.59622 17.6739 7.13342 17.6739 7.13342 16.0158C7.13342 14.2384 4.59622 14.4238 4.59622 16.0158ZM25.4386 15.9625C25.4386 17.6409 28.0116 17.6409 28.0116 15.9625C28.0116 14.2841 25.4386 14.274 25.4386 15.9625ZM27.8249 4.32045L29.9248 6.80883V7.71277H24.234V4.32045H27.8249ZM13.2181 16.0158C13.2181 17.6739 15.7553 17.6739 15.7553 16.0158C15.7553 14.3578 13.2181 14.3603 13.2181 16.0158Z" fill="white"/>
</svg>
