<svg width="20" height="14" viewBox="0 0 20 14" fill="none" xmlns="http://www.w3.org/2000/svg">
<path d="M0.496836 0.210938H11.6207C11.895 0.210938 12.1172 0.44625 12.1172 0.736406V8.57543C12.1172 8.86559 11.895 9.10019 11.6207 9.10019H0.496836C0.222538 9.10019 0.000352859 8.86562 0.000352859 8.57543V0.736406C0.000352859 0.44625 0.222538 0.210938 0.496836 0.210938Z" fill="#838383"/>
<path d="M15.9847 10.8438C16.7544 10.8438 17.3789 11.503 17.3789 12.3173C17.3789 13.1312 16.7544 13.7912 15.9847 13.7912C15.2153 13.7912 14.5915 13.1312 14.5915 12.3173C14.5915 11.503 15.2153 10.8438 15.9847 10.8438Z" fill="#838383"/>
<path d="M0.413671 9.71625H12.2869C12.5153 9.71625 12.7009 9.51992 12.7009 9.27844V2.7425C12.7009 2.50063 12.8859 2.30469 13.115 2.30469H16.8863C17.0091 2.30469 17.1254 2.36262 17.2037 2.46199L19.9041 5.88902C19.9662 5.96734 20 6.06672 20 6.16887V9.17492V10.7468C20 10.9883 19.8147 11.1843 19.5863 11.1843H17.5056C17.1685 10.6792 16.613 10.3476 15.9851 10.3476C15.3575 10.3476 14.8024 10.6792 14.465 11.1843H5.9725C5.63543 10.6792 5.08031 10.3476 4.45234 10.3476C3.82445 10.3476 3.26969 10.6792 2.93223 11.1843H0.413631C0.185234 11.1843 -3.8147e-05 10.9883 -3.8147e-05 10.7468V10.1541C0 9.91223 0.185274 9.71625 0.413671 9.71625ZM18.4882 6.51695V6.21406C18.4882 6.11055 18.4547 6.01016 18.3929 5.92906L16.6693 3.68441C16.5878 3.57887 16.4664 3.51781 16.338 3.51781H14.6492C14.4132 3.51781 14.2221 3.71961 14.2221 3.96871V6.51699C14.2221 6.76609 14.4133 6.96793 14.6492 6.96793H18.0617C18.297 6.96789 18.4882 6.76605 18.4882 6.51695Z" fill="#838383"/>
<path d="M4.45414 10.8438C5.22387 10.8438 5.84766 11.503 5.84766 12.3173C5.84766 13.1312 5.22383 13.7912 4.45414 13.7912C3.68477 13.7912 3.06066 13.1312 3.06066 12.3173C3.06066 11.503 3.68481 10.8438 4.45414 10.8438Z" fill="#838383"/>
</svg>
