<svg width="27" height="25" viewBox="0 0 27 25" fill="none" xmlns="http://www.w3.org/2000/svg">
<path fill-rule="evenodd" clip-rule="evenodd" d="M13.7852 13.9599C14.0132 14.4744 14.3545 14.829 14.7707 15.0849C14.561 15.3997 14.2834 15.6779 13.9616 15.9138C13.1795 16.4872 12.147 16.8088 11.1712 16.8088C10.1953 16.8088 9.16291 16.4872 8.38076 15.9138C8.11102 15.7161 7.87229 15.4887 7.67876 15.2348C7.99712 14.9282 8.24908 14.5172 8.40934 13.9575C8.16265 13.8113 7.94243 13.641 7.75786 13.4461C7.41888 13.0881 6.99289 12.4966 6.93415 11.8362L6.86902 11.8375C6.71899 11.8354 6.57392 11.8001 6.43818 11.7207C6.22113 11.5939 6.0683 11.3766 5.9651 11.1312C5.74662 10.6166 5.57344 9.26208 6.1233 8.87489L6.02031 8.80475L6.00877 8.65479C5.98757 8.38224 5.98219 8.05242 5.97681 7.70616C5.95698 6.43262 5.93177 4.88999 4.93341 4.58056L4.50499 4.44774L4.78702 4.08964C5.59406 3.06768 6.43686 2.17355 7.28689 1.4872C8.24855 0.710962 9.22583 0.194193 10.1822 0.0447218C11.1652 -0.108102 12.1179 0.123405 12.9978 0.8527C13.2574 1.06804 13.5095 1.32653 13.7528 1.62969C14.6916 1.72298 15.4588 2.24137 16.0069 2.98115C16.334 3.42302 16.5822 3.94536 16.7404 4.50047C16.898 5.05374 16.9667 5.64233 16.9375 6.22193C16.8843 7.26001 16.5141 8.27386 15.768 9.01316C15.8993 9.01814 16.023 9.04902 16.1323 9.10894C16.5485 9.33758 16.562 9.83326 16.4525 10.2494C16.3445 10.597 16.2071 11.0004 16.0773 11.3389C15.9201 11.7966 15.6897 11.8818 15.2447 11.8326C15.2302 12.5582 14.7396 13.1589 14.3161 13.5616C14.1599 13.7102 13.9812 13.8428 13.7852 13.9599ZM19.2286 17.387L20.1631 18.2883C20.8959 17.5244 21.6269 16.7578 22.3621 15.9962C22.5803 15.7778 22.7621 15.6728 23.0678 15.9938L23.932 16.9003C24.1018 17.0729 24.182 17.2188 24.1798 17.3739C24.1774 17.5303 24.0921 17.67 23.9311 17.832L20.7593 21.0254L20.6046 21.1839C20.3999 21.3957 20.2931 21.5061 20.1398 21.509C19.9765 21.512 19.8562 21.389 19.6062 21.1325C18.934 20.444 18.2236 19.7573 17.5698 19.0557C17.3886 18.8526 17.4045 18.6519 17.5975 18.454C17.9396 18.1198 18.2662 17.7313 18.603 17.3859C18.7069 17.2774 18.8079 17.2264 18.9174 17.2288C19.0251 17.2311 19.1244 17.2854 19.2286 17.387ZM20.8151 12.3152C22.5228 12.3152 24.0692 13.0252 25.1884 14.1729C26.3077 15.3207 27 16.9063 27 18.6575C27 20.4087 26.3077 21.9946 25.1884 23.1423C24.0692 24.29 22.5228 25 20.8151 25C19.1075 25 17.5611 24.29 16.4419 23.1423C16.1309 22.8234 15.8537 22.4715 15.6152 22.0926L15.6178 22.0967H0.283816C0.127301 22.0967 0 21.9662 0 21.8061C0 15.3029 4.26616 16.8388 6.79055 15.7984C7.05934 16.1725 7.39594 16.5019 7.77821 16.7822C8.7355 17.4839 9.99079 17.8775 11.1712 17.8775C12.3518 17.8775 13.6069 17.4839 14.5642 16.7822C14.7308 16.6604 14.8895 16.5277 15.0394 16.3849C15.353 15.5477 15.8345 14.7958 16.4419 14.1729C17.5611 13.0252 19.1075 12.3152 20.8151 12.3152ZM20.8151 13.2688C23.7174 13.2688 26.0701 15.6814 26.0701 18.6575C26.0701 21.6338 23.7174 24.0464 20.8151 24.0464C17.9129 24.0464 15.5603 21.6338 15.5603 18.6575C15.5603 15.6814 17.9129 13.2688 20.8151 13.2688Z" fill="white"/>
</svg>
